<svg width="4096" height="1024" xmlns="http://www.w3.org/2000/svg" p-id="10505" version="1.1" class="icon" t="1663426141938">

 <g>
  <title>Layer 1</title>
  <path id="svg_1" p-id="10506" fill="#1296db" d="m823.116,938.462l-622.232,0c-71.706,0 -130.046,-58.34 -130.046,-130.046l0,-605.232c0,-16.24 13.168,-29.41 29.41,-29.41s29.41,13.17 29.41,29.41l0,605.232c0,39.276 31.952,71.224 71.224,71.224l622.232,0c39.272,0 71.224,-31.948 71.224,-71.224l0,-374.864c0,-16.24 13.168,-29.41 29.41,-29.41s29.41,13.17 29.41,29.41l0,374.864c0.004,71.706 -58.336,130.046 -130.042,130.046z"/>
  <path id="svg_2" p-id="10507" fill="#1296db" d="m29.41,114.938l965.172,0l0,204.288l-965.172,0l0,-204.288z"/>
  <path id="svg_3" p-id="10508" fill="#1296db" d="m994.59,348.65l-965.18,0c-16.242,0 -29.41,-13.17 -29.41,-29.412l0,-204.29c0,-16.24 13.168,-29.41 29.41,-29.41l965.178,0c16.244,0 29.41,13.17 29.41,29.41l0,204.29c0.002,16.242 -13.166,29.412 -29.408,29.412zm-935.768,-58.822l906.356,0l0,-145.468l-906.356,0l0,145.468zm610.526,266.286l-314.696,0c-16.244,0 -29.41,-13.17 -29.41,-29.41l0,-88.23c0,-16.24 13.168,-29.41 29.41,-29.41s29.41,13.17 29.41,29.41l0,58.818l255.874,0l0,-58.818c0,-16.24 13.168,-29.41 29.41,-29.41c16.244,0 29.41,13.17 29.41,29.41l0,88.23c0.002,16.238 -13.164,29.41 -29.408,29.41z"/>
  <path id="svg_4" p-id="10509" fill="#1296db" d="m100.25,791.406l0,17.008c0,55.578 45.054,100.634 100.634,100.634l622.234,0c55.578,0 100.634,-45.054 100.634,-100.634l0,-17.008l-823.502,0z"/>
  <path id="svg_5" p-id="10510" fill="#1296db" d="m823.116,938.462l-622.232,0c-71.706,0 -130.046,-58.34 -130.046,-130.046l0,-17.008c0,-16.24 13.168,-29.41 29.41,-29.41l823.5,0c16.244,0 29.41,13.17 29.41,29.41l0,17.008c0.004,71.706 -58.336,130.046 -130.042,130.046zm-692.374,-117.644c5.882,33.384 35.098,58.822 70.142,58.822l622.232,0c35.046,0 64.26,-25.438 70.142,-58.822l-762.516,0z"/>
  <text style="cursor: move;" font-weight="normal" font-style="normal" transform="matrix(5.05582 0 0 4.30115 -11900.8 -1614.74)" stroke="null" xml:space="preserve" text-anchor="start" font-family="'Dosis'" font-size="90" id="svg_14" y="540.90775" x="2635.874" stroke-width="0" fill="#1296db">URL Box</text>
 </g>
</svg>